# xmcd CD database file
# Copyright (C) 1996 Ti Kan
#
# Track frame offsets:
#  183
#  12735
#  24563
#  37335
#  50038
#  62475
#  74780
#  87903
#  101758
#  111780
#  123600
#  133625
#  145578
#  158588
#  171533
#  182823
#  196620
#  210163
#  221555
#  235203
#
# Disc length: 3289 seconds
#
# Revision: 2
# Processed by: cddbd v1.4b41PL1 Copyright (c) Steve Scherf et al.
# Submitted via: CDWizzard Release:4.12
#
DISCID=2b0cd714
DTITLE=Champion Jack Dupree - Blues For Everybody
DYEAR=1900
DGENRE=
TTITLE0=Heart Breaking Woman
TTITLE1=Watchin' My Stuff
TTITLE2=Ain't No Meat On De Bone
TTITLE3=The Blues Got Me Rockin'
TTITLE4=Tongue Tied Blues
TTITLE5=Please Tell Me Baby
TTITLE6=Harelip Blues
TTITLE7=Two Below Zero
TTITLE8=Let The Doorbell Ring
TTITLE9=Blues For Everybody
TTITLE10=That's My Pa
TTITLE11=She Cooks Me Cabbage
TTITLE12=Failing Health Blues
TTITLE13=Stumbling Block
TTITLE14=Mail Order Woman
TTITLE15=Silent Partner
TTITLE16=House Rent Party
TTITLE17=Rub A Little Boogie
TTITLE18=Walkin' The Blues
TTITLE19=Daybreak Rock
EXTD=
EXTT0=
EXTT1=
EXTT2=
EXTT3=
EXTT4=
EXTT5=
EXTT6=
EXTT7=
EXTT8=
EXTT9=
EXTT10=
EXTT11=
EXTT12=
EXTT13=
EXTT14=
EXTT15=
EXTT16=
EXTT17=
EXTT18=
EXTT19=
PLAYORDER=
